# xmcd
#
# Track frame offsets:
#	150
#	9120
#	17663
#	27871
#	38379
#	44747
#	54685
#	66670
#	75010
#	83418
#	93573
#	101388
#	106226
#	113276
#
# Disc length: 1643 seconds
#
# Revision: 1
# Processed by: cddbd v1.5.2PL0 Copyright (c) Steve Scherf et al.
# Submitted via: audiograbber 1.83.01
#
DISCID=9106690e
DTITLE=Jim Reeves - Kimberley Jim
DYEAR=1964
DGENRE=Country
TTITLE0=Kimberley Jim
TTITLE1=Strike It Rich
TTITLE2=I Grew Up
TTITLE3=My Life Is A Gypsy
TTITLE4=Born To Be Lucky
TTITLE5=Old Fashioned Rag
TTITLE6=Could I Be Falling In Love
TTITLE7=Diamonds In The Sand
TTITLE8=A Stranger's Just A Friend
TTITLE9=Fall In And Follow
TTITLE10=Roving Gambler
TTITLE11=Dolly With The Dimpled Knees
TTITLE12=The Bloom-Chic Polka
TTITLE13=The Search Is Ended
EXTD=
EXTT0=
EXTT1=
EXTT2=
EXTT3=
EXTT4=
EXTT5=
EXTT6=
EXTT7=
EXTT8=
EXTT9=
EXTT10=
EXTT11=
EXTT12=
EXTT13=
PLAYORDER=
